Coordinates
version=1
nRows=22
nColumns=24
inDegrees=yes

Units are S.I. units (second, meters, Newtons, ...)
Angles are in degrees.

endheader
time	pelvis_tilt	pelvis_list	pelvis_rotation	pelvis_tx	pelvis_ty	pelvis_tz	hip_flexion_r	hip_adduction_r	hip_rotation_r	knee_angle_r	ankle_angle_r	subtalar_angle_r	mtp_angle_r	hip_flexion_l	hip_adduction_l	hip_rotation_l	knee_angle_l	ankle_angle_l	subtalar_angle_l	mtp_angle_l	lumbar_extension	lumbar_bending	lumbar_rotation
      4.83000000	     -3.41500746	      4.73444341	     22.24005161	      1.52886459	      0.64852077	     -0.17944795	     23.47285629	     -9.90468189	    -23.58254688	      9.29063245	      6.44174049	      5.10990551	      0.00000000	    -22.54469029	      1.73127406	     23.47633668	     -1.43836263	     16.11243861	     -4.19925500	      0.00000000	    -15.15716024	     -4.42830631	    -22.11301885
      4.84000000	     -3.04172100	      4.26086085	     22.55033965	      1.54828430	      0.64774605	     -0.17955900	     22.43428626	     -8.96127985	    -23.03364223	      8.36250195	      4.43508597	      2.58109515	      0.00000000	    -22.75704723	      0.89625644	     21.96371826	     -4.41514488	     15.59514202	     -2.40032414	      0.00000000	    -14.55463702	     -3.91896572	    -22.23607379
      4.85000000	     -2.85388974	      3.71471485	     22.51134816	      1.56792848	      0.64712079	     -0.17937829	     21.58765615	     -7.87734939	    -21.85944753	      7.24883852	      1.41665178	     -0.86555435	      0.00000000	    -22.39712271	      0.23792993	     19.97851192	     -7.96542835	     14.44850357	     -0.52374966	      0.00000000	    -13.64838620	     -3.49097961	    -21.95404092
      4.86000000	     -2.58860855	      3.01853055	     22.14653422	      1.58762723	      0.64695063	     -0.17891639	     20.55349235	     -6.47795774	    -20.14819269	      6.47247386	     -2.43448101	     -4.85420649	      0.00000000	    -21.77532775	     -0.45004125	     17.93037202	    -11.88103819	     12.34409820	      0.79440551	      0.00000000	    -12.76456706	     -2.89858710	    -21.32228695
      4.87000000	     -2.30119768	      2.08258839	     21.41684328	      1.60710088	      0.64730476	     -0.17818533	     19.39889152	     -4.73225515	    -17.79980959	      6.17565972	     -6.55386934	     -9.01940774	      0.00000000	    -20.79995809	     -1.17311723	     15.92682840	    -16.11709636	      9.13269788	      1.03007615	      0.00000000	    -11.88533471	     -2.02710304	    -20.34757299
      4.88000000	     -1.91534761	      0.90692770	     20.31236303	      1.62605519	      0.64837795	     -0.17727019	     18.11477707	     -2.68080622	    -15.09526137	      6.15482327	    -10.09637420	    -12.59236712	      0.00000000	    -19.54708534	     -1.91253469	     14.08307230	    -20.62317128	      4.86386698	     -0.04953280	      0.00000000	    -11.20192046	     -0.79230343	    -19.01906459
      4.89000000	     -1.42282512	     -0.54543099	     18.88831337	      1.64421202	      0.65019931	     -0.17622515	     16.82706810	     -0.33748989	    -12.64800942	      6.05273955	    -12.20353319	    -14.80701251	      0.00000000	    -17.91239911	     -2.74801957	     12.15964594	    -25.52222065	      0.09285027	     -2.01147505	      0.00000000	    -10.84908673	      0.87977022	    -17.38763097
      4.90000000	     -0.92418690	     -2.32253734	     17.21704963	      1.66151149	      0.65251919	     -0.17508986	     15.57595632	      2.30182164	    -10.45409915	      5.86476249	    -12.46317451	    -15.38399372	      0.00000000	    -15.77086213	     -3.79029338	     10.14750928	    -30.86009600	     -4.38986537	     -4.35163229	      0.00000000	    -10.75091581	      3.00402462	    -15.55281775
      4.91000000	     -0.54681821	     -4.19794344	     15.41986729	      1.67794337	      0.65507536	     -0.17391954	     14.26962715	      4.97022059	     -8.41636756	      5.83156309	    -11.66661788	    -14.99614639	      0.00000000	    -13.14893770	     -4.86980763	      8.32992632	    -36.45772107	     -8.12151304	     -7.14847296	      0.00000000	    -10.89517917	      5.25582246	    -13.60827332
      4.92000000	     -0.38514085	     -5.96949488	     13.71758817	      1.69354538	      0.65760013	     -0.17276758	     12.93642225	      7.42121948	     -6.88916153	      6.01198262	     -9.99295247	    -13.75305816	      0.00000000	    -10.03838061	     -5.86763933	      6.95032959	    -42.12301070	    -10.94975908	    -10.50402243	      0.00000000	    -11.19888870	      7.34971765	    -11.82548755
      4.93000000	     -0.38722083	     -7.54441848	     12.25077041	      1.70857030	      0.65993869	     -0.17153081	     11.50325432	      9.60720542	     -6.24487572	      6.50106386	     -7.72630802	    -11.25292597	      0.00000000	     -6.57180744	     -6.81797294	      6.01913456	    -47.61373476	    -12.44824953	    -13.54908452	      0.00000000	    -11.61179912	      9.12632890	    -10.24086637
      4.94000000	     -0.72387145	     -8.50162376	     11.02596312	      1.72316481	      0.66179943	     -0.17013921	      9.95607885	     11.04281116	     -5.10960639	      7.53136444	     -6.12241124	     -9.96293231	      0.00000000	     -2.74671335	     -7.19295862	      5.63302298	    -52.61248546	    -12.87729843	    -16.34690068	      0.00000000	    -11.88117982	     10.03100180	     -8.94733922
      4.95000000	     -1.07996699	     -8.95587718	     10.14008978	      1.73744445	      0.66339946	     -0.16857665	      8.27916088	     11.93924749	     -4.36307356	      8.72922058	     -4.62997487	     -8.69097770	      0.00000000	      1.10417224	     -7.16228543	      5.70803269	    -56.95657464	    -12.28636769	    -18.34525396	      0.00000000	    -12.23725244	     10.26201027	     -7.95033765
      4.96000000	     -1.42070895	     -8.91426769	      9.44499439	      1.75145406	      0.66478684	     -0.16680039	      6.53052937	     12.30551624	     -3.53079531	      9.95822988	     -3.46606821	     -7.92084061	      0.00000000	      4.86741378	     -6.66797709	      6.02997010	    -60.53164796	    -10.84969177	    -19.28167804	      0.00000000	    -12.67964509	      9.83025040	     -7.07121858
      4.97000000	     -1.78991244	     -8.50497042	      8.82947433	      1.76520396	      0.66599503	     -0.16485819	      4.93432328	     12.27073975	     -2.73280130	     10.96014395	     -2.26489725	     -7.49405177	      0.00000000	      8.55325892	     -5.78860843	      6.46641312	    -63.29496899	     -8.93172918	    -19.33633429	      0.00000000	    -13.11650137	      8.89059085	     -6.18613438
      4.98000000	     -2.13718073	     -8.05579704	      8.15875622	      1.77865401	      0.66707365	     -0.16282184	      3.57483890	     12.17704458	     -1.91044392	     11.57540583	     -1.36903732	     -7.27373810	      0.00000000	     12.15480470	     -4.90307465	      6.87999904	    -65.36304884	     -6.21106724	    -18.09650086	      0.00000000	    -13.60359808	      7.88885257	     -5.20659603
      4.99000000	     -2.36629535	     -7.56203238	      7.28455565	      1.79204099	      0.66819314	     -0.16076035	      2.27677208	     12.02140201	     -0.82543879	     11.83747291	     -0.34538583	     -7.22278466	      0.00000000	     15.44259522	     -4.04703625	      7.12227115	    -66.61122072	     -3.57449510	    -16.55763534	      0.00000000	    -14.20361506	      6.82363387	     -3.97354863
      5.00000000	     -2.53639181	     -7.15011694	      6.17836780	      1.80545335	      0.66926372	     -0.15877241	      1.08427869	     11.90280897	      0.55713805	     11.77228983	      0.70923920	     -7.27393958	      0.00000000	     18.48414792	     -3.37612832	      7.21436461	    -67.10863318	     -1.10298859	    -15.05969292	      0.00000000	    -14.80296675	      5.87373382	     -2.57341964
      5.01000000	     -2.68996770	     -6.83128158	      4.87232776	      1.81900592	      0.67018412	     -0.15695144	     -0.03786350	     11.80261739	      2.29031257	     11.49248183	      1.79590522	     -7.46564351	      0.00000000	     21.30238961	     -2.90869057	      7.20564187	    -66.88906357	      1.01409763	    -14.06026443	      0.00000000	    -15.30923204	      5.07573505	     -1.11903056
      5.02000000	     -2.90368940	     -6.54167754	      3.42152692	      1.83276082	      0.67085078	     -0.15534001	     -1.06448740	     11.64675396	      4.21900324	     11.09646781	      2.81380986	     -7.80026382	      0.00000000	     23.94840110	     -2.57787423	      7.13122513	    -65.96072636	      2.71035119	    -13.83570746	      0.00000000	    -15.61047541	      4.37649144	      0.30498748
      5.03000000	     -3.13020034	     -6.31288349	      1.96078373	      1.84678303	      0.67123289	     -0.15397194	     -2.09704123	     11.48153190	      6.12064189	     10.68684408	      4.10616620	     -7.83966297	      0.00000000	     26.37204771	     -2.39657342	      7.12031847	    -64.35005505	      3.74319469	    -14.56986711	      0.00000000	    -15.72472879	      3.84746672	      1.54644916
      5.04000000	     -3.46226921	     -5.96945750	      0.52625438	      1.86104236	      0.67118709	     -0.15282587	     -3.19412913	     11.05490414	      8.59307043	     10.60358942	      4.61036730	     -9.12974172	      0.00000000	     28.63348293	     -2.18584207	      7.10326302	    -62.03693089	      4.21425306	    -16.31938427	      0.00000000	    -15.55906220	      3.28529518	      2.51607385
